<svg id="Calque_1" data-name="Calque 1" xmlns="http://www.w3.org/2000/svg" viewBox="0 0 255.12 167.24"><defs><style>.cls-1{fill:#581d74;}.cls-2{fill:none;}</style></defs><title>BMOI couleur_rvb</title><path d="M111.92,126c0,4.85-4.21,8.41-11.08,8.41H75.32V105.17H100a11.39,11.39,0,0,1,8.37,3.48,7.31,7.31,0,0,1,2,5,6.38,6.38,0,0,1-3,5.62C110.3,120.86,111.92,123,111.92,126Zm-8.73-12.41a2.89,2.89,0,0,0-3.2-2.83H82.44v5.78h17.83A2.92,2.92,0,0,0,103.19,113.63Zm1.49,12.05c0-2.07-1.62-3.48-4.29-3.48h-18v6.63h17.83C103.14,128.83,104.68,127.66,104.68,125.68Z"/><path d="M152.36,134.45V113.67h-.13l-13.95,16.78-14-16.78h-.12v20.78h-7.12V105.17h8.33l12.86,15.53,12.86-15.53h8.33v29.28Z"/><path d="M199.67,130.49c-3.68,3-8.9,4.81-14.88,4.81s-11.21-1.78-14.85-4.81a13.83,13.83,0,0,1,.05-21.35,25.09,25.09,0,0,1,29.68,0,13.81,13.81,0,0,1,0,21.35ZM184.83,110c-7.65,0-12.58,4-12.58,9.82s4.81,9.87,12.54,9.87,12.61-4,12.61-9.87S192.51,110,184.83,110Z"/><path d="M210.18,134.45V105.17h7.12v29.28Z"/><path class="cls-1" d="M104.84,93.38,102.21,93c-6.54-.92-13.94,0-20.56.18-1.79,0-10.53-.09-12,0s-12.13.4-14.73.93c-4.13.83-8.81,1.91-11.87,5.06-3.52,3.63-5,9.45-6.35,14.23-1.17,4.18-1.49,9.31,3.51,10.81,2.84.86,5.91.69,8.8,1.53a100.91,100.91,0,0,0,10.5,2.8c3.12.57,4.36,5,4.36,5s-34.15-.15-41.76-.15c0,0-.46-.05-.18-.74,3.5-8.51,6.77-18.93,12.51-26.17,1.66-2.08,3.8-3.83,4.44-6.53.59-2.48,0-3.61,2.58-4.73,2.26-1,4.42-1.64,6.13-3.55a27.72,27.72,0,0,1,5.45-4.47c.63-.26.82-.83.48-1.19s-1.9-2.11-.3-3.47,2.3.88,2.91,1.41,3.51.74,6.17-1.63,5.9-5.59,6.38-7,1-2.25,1.64-1.71.48,2.24.21,2.86-1.24,2.59-1,4a2.4,2.4,0,0,0,2.09,1.84,59.9,59.9,0,0,0,9.29.8c2.63-.14,13.56.48,14.8.39s9.47-.57,9.81-.62.27-.52,0-.7a10.55,10.55,0,0,1-3.12-3.12,11.25,11.25,0,0,1-.46-3.3c0-.4.13-.31.37-.09s5.93,5,6.45,5.5,2.14,1.8,3.26,1.32,2.64-1.67,3.15-1.76a3.18,3.18,0,0,1,3.06,2c.9,1.89,2.81,7,2.81,7s.49.57,0,.57a9.92,9.92,0,0,1-3.87-1.14,61.5,61.5,0,0,0-8.41-3.43,65.92,65.92,0,0,0-10.23-.75c-2.42.18-16.26.4-17.68.4s-11.41.57-13.13.62-5.42.26-6,.26a9.45,9.45,0,0,0-3.38.74c-.82.49-4.76,2.82-4.94,3s0,.35.37.35S59.89,90,61.49,90s13.23.17,15.16.26c2.42.11,7.07-.6,9-.32s8-.38,9.22-.24c13.86,1.46,31.84,1.46,41.84,13,.87,1,7.25,8.55,2.76,8.37-1.64-.06-3-3.76-3.77-4.87-2.33-3.55-6.18-5.87-9.87-7.77C119.38,95.13,112,94.3,104.84,93.38Z"/><path class="cls-1" d="M89.78,81s-8-.11-8.68-.61-.77-2.07,0-2.29,1.19-.11,1.81-.33a2.69,2.69,0,0,0,1.43-2.57c0-1.46-.13-5.42-.86-6.7a5.37,5.37,0,0,0-3.3-3c-1.58-.34-7.91-.56-8.68-.56s-1.88-.28-2.5.56-1.57,2.62-2.42,1.56-1.34-3.46,0-4.35,2.12-1,2.19-3.24,1.23-3,1.81-3S71.85,57.52,72,58a2.73,2.73,0,0,0,2,1.56c1.39.39,7.11.72,8.57.28s2.27-2.29,2.76-2.46,1.42-.06,2,1.28a2.58,2.58,0,0,0,2.54,1.73,20.47,20.47,0,0,1,3.64.23,29.38,29.38,0,0,1,3.58,1.62c.61.22,2.42.5,3,.11s1.31-1.9,2.42-1.79a2.39,2.39,0,0,1,1.92,2.4c0,1.17-.88,2-.88,2.63s.61,2.23.57,2.9a5.7,5.7,0,0,1-.76,2.51c-.39.39-1,1-1.58-.34s-1.8-4.13-2.84-5a10.71,10.71,0,0,0-5.07-2.12c-1.88-.17-3.77-.17-4.38-.17s-2.23.84-2.34,3.12.08,8.55.08,9.22.07,1.33.07,1.67,0,.78.42.89a2.67,2.67,0,0,1,1.2.56A2.65,2.65,0,0,1,89.78,81Z"/><path class="cls-1" d="M81.66,50.33c1,.19,7.52,2.75,9,3.15s2.78.29,3.46.59a1.8,1.8,0,0,1,.54,2.66c-.88.88-2.71.49-3.53.2S85.8,54.27,85,54.07s-2.1-.69-2.5-.1-1.09,2.86-1.9,2.86-2.31-1.09-2.17-3.65A2.79,2.79,0,0,1,81.66,50.33Z"/><path class="cls-1" d="M83.87,42.63c.6,0,1.42,1,1.72,2s.41,1.63,1.86,1.47,2.62-.16,2.86-.24.06.44,0,.8a4.15,4.15,0,0,1-5.32,2.91A3.32,3.32,0,0,1,83.3,48a7.92,7.92,0,0,1-.47-3.22C82.83,43,83.38,42.63,83.87,42.63Z"/><path class="cls-1" d="M86.38,36.28c0,.15,0,.29,0,.44A2.35,2.35,0,0,1,86.16,38a8.35,8.35,0,0,0-1,1.43,1.17,1.17,0,0,0,.9,1.59,4.85,4.85,0,0,0,3.11,0,1.05,1.05,0,0,0,.33-1.27,4.62,4.62,0,0,1-1-2.42c-.06-1.11-.63-14.21-.68-15.12-.08-1.19-.12-2.38-.17-3.57,0-.52,0-1-.06-1.55,0-.14,0-1.07-.21-.53a9,9,0,0,0-.19,1.95c-.14,3.8-.39,7.59-.58,11.38-.08,1.73-.15,3.47-.21,5.2Z"/><rect class="cls-2" x="-0.04" y="-0.02" width="255.81" height="167.35"/><path d="M89.9,153.18H82.47A6,6,0,0,1,76.23,147c0-3.5,2.53-6,6.24-6H89.3v2.42H82.47c-1.82,0-3.13,1.4-3.13,3.55s1.27,3.71,3.13,3.71h4.39V147h3Z"/><path d="M105.15,149.68l3.48,3.5h-3.84l-3-3.12H97.16v3.12h-3V141.07h8.28c3.53,0,5.6,1.64,5.6,4.44A4.22,4.22,0,0,1,105.15,149.68Zm-2.88-2c1.8,0,2.7-.68,2.7-2.11s-.86-2.09-2.7-2.09H97.16v4.2Z"/><path d="M126.61,147a6,6,0,0,1-6.21,6.14h-3.2A6,6,0,0,1,111,147c0-3.5,2.52-6,6.23-6h3.2C124.12,141.07,126.61,143.52,126.61,147Zm-3.07,0c0-2.15-1.29-3.55-3.14-3.55h-3.2c-1.82,0-3.13,1.4-3.13,3.55s1.28,3.71,3.13,3.71h3.2C122.28,150.75,123.54,149.16,123.54,147Z"/><path d="M144.3,141.05v6.82c0,3.55-2.49,5.47-7.08,5.47s-7.1-1.92-7.1-5.47v-6.82h3v6.54c0,2.3,1.18,3.23,4.12,3.23s4.11-.93,4.11-3.23v-6.54Z"/><path d="M162.09,145.45c0,2.75-2.09,4.36-5.71,4.36h-5v3.37h-3V141.07h8C160,141.07,162.09,142.68,162.09,145.45Zm-3.1,0c0-1.33-.87-2-2.71-2h-4.86v3.92h4.86C158.12,147.41,159,146.78,159,145.45Z"/><path d="M168.72,145.83H177v2.37h-8.24v2.55H178v2.43H165.68V141.07H178v2.42h-9.27Z"/><path d="M201.83,149.63c0,2.14-1.76,3.55-4.66,3.55H188V141.07h9c2.8,0,4.41,1.28,4.41,3.33a2.72,2.72,0,0,1-1.32,2.46A2.94,2.94,0,0,1,201.83,149.63ZM191,145.83h5.72c1.11,0,1.59-.36,1.59-1.19s-.47-1.15-1.59-1.15H191Zm7.74,3.6c0-.91-.55-1.33-1.77-1.33h-6v2.65h6C198.21,150.75,198.76,150.34,198.76,149.43Z"/><path d="M211,153.18a6,6,0,0,1-6.23-6.14c0-3.5,2.52-6,6.23-6h6.75v2.42H211c-1.82,0-3.13,1.4-3.13,3.55s1.28,3.71,3.13,3.71h6.75v2.43Z"/><path d="M235.25,145.45c0,2.75-2.09,4.36-5.7,4.36h-5v3.37h-3V141.07h8C233.15,141.07,235.25,142.68,235.25,145.45Zm-3.1,0c0-1.33-.86-2-2.7-2h-4.86v3.92h4.86C231.29,147.41,232.15,146.78,232.15,145.45Z"/></svg>